<svg id="Ebene_1" data-name="Ebene 1" xmlns="http://www.w3.org/2000/svg" viewBox="0 0 1041 384"><defs><style>.cls-1,.cls-2,.cls-4{fill:#007bff;}.cls-1,.cls-2{fill-rule:evenodd;}.cls-2{stroke:#fff;stroke-miterlimit:10;stroke-width:2px;}.cls-3{fill:#fff;}</style></defs><title>aai_logo</title><path class="cls-1" d="M96,170.4,94.18,300.29c-.21,14.89,49.58,27.65,111.22,28.5s111.75-10.53,112-25.42l1.79-129.89Z"/><polygon class="cls-2" points="388.5 150.31 200.68 244.97 25.75 150.66 213.57 56 388.5 150.31"/><path class="cls-3" d="M270,114.06q-6.56-3.16-13-6.47l-3.24-1.65c-1.08-.54-2.06-1.25-3.09-1.87l-6.19-3.76-24.76-15,1.45.06-39.93,20-20,10c-.83.41-1.65.85-2.48,1.28s-1.7.75-2.56,1.11l-5.18,2.13Q145.89,122,140.67,124q4.76-3,9.55-5.86l4.8-2.88c.81-.46,1.59-1,2.43-1.39s1.68-.79,2.51-1.22l20-10,39.93-20,.74-.37.71.43,24.76,15,6.19,3.75c1,.63,2.12,1.17,3.1,1.88l3,2.11Q264.23,109.69,270,114.06Z"/><path class="cls-4" d="M361,250.55l-3-.3c8.41-82.27,1.7-129.55-20.52-144.55-12-8.09-29-6.44-50.49,4.9l-1.4-2.65c22.59-11.89,40.61-13.49,53.57-4.74C362.35,118.89,369.49,167.09,361,250.55Z"/><path class="cls-4" d="M356,283a.5.5,0,0,1-.27-.92l11.18-7-13.31,7.68a.49.49,0,0,1-.68-.18.5.5,0,0,1,.16-.68l10.26-6.37-11.86,6.85a.51.51,0,0,1-.68-.18.49.49,0,0,1,.17-.68l7.48-4.6L349.64,282a.5.5,0,0,1-.51-.85l14.82-9.2-16.38,9.45a.5.5,0,0,1-.68-.17.5.5,0,0,1,.17-.69l15.71-9.71-17.12,9.88a.49.49,0,0,1-.67-.18.5.5,0,0,1,.16-.68l15.55-9.57-16.8,9.7a.5.5,0,0,1-.68-.18.5.5,0,0,1,.17-.68l21.5-13.35L342,279a.51.51,0,0,1-.68-.18.49.49,0,0,1,.17-.68L361.16,266l-20.88,12a.5.5,0,1,1-.51-.85l20.28-12.47L338.78,277a.5.5,0,0,1-.68-.18.5.5,0,0,1,.17-.68l10.32-6.23-10.93,6.31A.52.52,0,0,1,337,276a.52.52,0,0,1,.18-.69l1-.6-1.39.8a.5.5,0,0,1-.51-.86L360,260.09l-24.59,14.2a.51.51,0,0,1-.68-.18.49.49,0,0,1,.17-.68l19.84-12.11-20.55,11.87a.5.5,0,0,1-.51-.87l7.28-4.37-7.58,4.38a.51.51,0,0,1-.68-.18.49.49,0,0,1,.17-.68l26.48-16.32-27.22,15.72a.5.5,0,0,1-.51-.86l5.89-3.54L331.37,270a.5.5,0,0,1-.51-.87l10.9-6.56L330.63,269a.51.51,0,0,1-.68-.18.49.49,0,0,1,.18-.68L343.56,260l-13.64,7.87a.49.49,0,0,1-.68-.18.5.5,0,0,1,.17-.68l9.94-6-10.1,5.83a.5.5,0,0,1-.68-.18.51.51,0,0,1,.17-.68l21.33-13-21.63,12.49a.5.5,0,0,1-.51-.86l22.23-13.56-22.44,12.95a.5.5,0,0,1-.5-.86l3.35-2-3.31,1.91a.5.5,0,0,1-.51-.86l20.61-12.55-20.74,12a.49.49,0,0,1-.68-.18.5.5,0,0,1,.17-.68l10.07-6.06-9.95,5.75a.51.51,0,0,1-.68-.18.49.49,0,0,1,.17-.68l22.15-13.55L325.7,258.9a.5.5,0,0,1-.68-.18.49.49,0,0,1,.17-.68l19.12-11.64-19.05,11a.5.5,0,0,1-.51-.86l17.7-10.77L325,255.85a.5.5,0,0,1-.68-.18.5.5,0,0,1,.17-.68l7.88-4.74-7.6,4.39a.51.51,0,0,1-.68-.18.5.5,0,0,1,.17-.68l25.34-15.7-25.1,14.49a.5.5,0,0,1-.68-.17.51.51,0,0,1,.17-.69l4.61-2.77-4.17,2.41a.51.51,0,0,1-.68-.18.51.51,0,0,1,.18-.69l.4-.24a.49.49,0,0,1-.63-.2.5.5,0,0,1,.16-.68l19.67-12.11-19.18,11.07a.5.5,0,0,1-.68-.17.5.5,0,0,1,.17-.69l18.76-11.57-18.09,10.44a.5.5,0,0,1-.68-.17.51.51,0,0,1,.16-.69l22.25-13.94-21.48,12.4a.5.5,0,0,1-.52-.86l20.15-12.65-19.09,11a.51.51,0,0,1-.68-.18.5.5,0,0,1,.17-.68l6.06-3.7-5.2,3a.5.5,0,0,1-.68-.18.49.49,0,0,1,.17-.68l6.57-4-5.42,3.13a.5.5,0,0,1-.52-.86L341,227.6l-13.7,7.91a.5.5,0,0,1-.68-.17.51.51,0,0,1,.16-.69l11.42-7.25-9.56,5.52a.5.5,0,0,1-.67-.18.49.49,0,0,1,.16-.68l5.86-3.71L330,230.63a.51.51,0,0,1-.68-.17.51.51,0,0,1,.15-.68l9.41-6.37L333,226.83a.48.48,0,0,1-.67-.16.49.49,0,0,1,.12-.67l4.94-3.59a.49.49,0,0,1-.3-.23.49.49,0,0,1,.18-.68l6.76-3.9a.5.5,0,0,1,.55.83l-3.77,2.74,9.78-5.65a.5.5,0,0,1,.53.85l-9.41,6.36,13.6-7.85a.5.5,0,0,1,.52.85l-5.88,3.71,8.15-4.7a.5.5,0,0,1,.52.86l-11.43,7.25L360.83,215a.5.5,0,0,1,.52.85l-15.22,9.67,17.56-10.14a.51.51,0,0,1,.68.18.5.5,0,0,1-.17.68l-6.57,4,7.8-4.5a.5.5,0,0,1,.68.17.51.51,0,0,1-.16.69l-6.05,3.69,7.21-4.16a.5.5,0,0,1,.51.85l-20.15,12.66L369.42,217a.5.5,0,0,1,.52.85l-22.24,14,24-13.87a.5.5,0,0,1,.68.18.49.49,0,0,1-.17.68l-18.76,11.58,20-11.54a.5.5,0,0,1,.51.86l-19.67,12.11,20.87-12a.49.49,0,0,1,.68.18.5.5,0,0,1-.17.68l-.27.16.67-.39a.5.5,0,0,1,.51.86L372,224l5.09-2.94a.5.5,0,0,1,.51.86l-25.35,15.7,26.54-15.32a.5.5,0,1,1,.5.86l-7.86,4.74,8.27-4.78a.5.5,0,0,1,.51.87L362.5,234.74l18.33-10.59a.5.5,0,0,1,.51.87l-19.12,11.64L382,225.26a.5.5,0,0,1,.68.17.51.51,0,0,1-.17.69l-22.16,13.54,22.74-13.13a.49.49,0,0,1,.68.18.5.5,0,0,1-.17.68l-10.07,6.07,10.36-6a.5.5,0,0,1,.51.86l-20.62,12.56,21.08-12.17a.49.49,0,0,1,.68.18.5.5,0,0,1-.17.68l-3.36,2,3.43-2a.5.5,0,0,1,.68.17.5.5,0,0,1-.17.69L363.7,244,386.31,231a.49.49,0,0,1,.68.18.5.5,0,0,1-.17.68l-21.33,13,21.63-12.49a.49.49,0,0,1,.68.18.5.5,0,0,1-.17.68l-9.92,6,9.94-5.74a.49.49,0,0,1,.68.18.5.5,0,0,1-.17.68l-13.45,8.12,13.51-7.81a.5.5,0,0,1,.51.87L377.83,242l10.93-6.31a.49.49,0,0,1,.68.18.5.5,0,0,1-.17.68l-5.88,3.53,5.74-3.32a.5.5,0,0,1,.67.18.5.5,0,0,1-.16.68L363.15,254l26.58-15.34a.5.5,0,0,1,.51.86L383,243.84l7.1-4.1a.5.5,0,0,1,.51.86l-19.85,12.11,19.68-11.36a.5.5,0,0,1,.68.17.51.51,0,0,1-.17.69L367.24,256.8l23.55-13.6a.49.49,0,0,1,.68.18.5.5,0,0,1-.17.68l-1,.61.71-.41a.49.49,0,0,1,.68.18.5.5,0,0,1-.17.68l-10.33,6.24,9.91-5.72a.5.5,0,0,1,.51.86L371.33,259l19.85-11.47a.51.51,0,0,1,.68.18.5.5,0,0,1-.17.68L372,260.48l19.22-11.1a.5.5,0,0,1,.68.18.49.49,0,0,1-.17.68l-21.5,13.36,20.81-12a.5.5,0,0,1,.68.18.49.49,0,0,1-.17.68L376,262l14.87-8.59a.51.51,0,0,1,.68.18.5.5,0,0,1-.16.68L375.69,264l14.77-8.52a.5.5,0,1,1,.51.85l-14.82,9.21,13.86-8a.5.5,0,0,1,.51.85L383,263l6.4-3.7a.51.51,0,0,1,.68.18.5.5,0,0,1-.17.68l-10.25,6.37,9-5.19a.5.5,0,0,1,.52.85l-11.17,7,9.52-5.49a.49.49,0,0,1,.67.17.5.5,0,0,1-.15.68l-12.48,8.12,10.19-5.89a.51.51,0,0,1,.68.17.5.5,0,0,1-.14.68l-10.62,7.27,6.9-4a.5.5,0,0,1,.55.84l-5,3.62a.53.53,0,0,1,.31.24.5.5,0,0,1-.19.68l-6.75,3.9a.5.5,0,0,1-.55-.84l3.88-2.82-9.95,5.75a.5.5,0,0,1-.53-.84L375,274.2,359.81,283a.49.49,0,0,1-.67-.17.5.5,0,0,1,.15-.68L371.77,274l-15.56,9A.54.54,0,0,1,356,283Z"/><path class="cls-4" d="M641.05,202.9,622.4,298.28H569l4.47-24.78q-13.12,14.94-27.76,22a71.91,71.91,0,0,1-31.8,7.09q-23.73,0-37.69-12.31t-14-33.22q0-31.93,24.71-48.88t71.28-16.95H589.7l.6-4.17a26.94,26.94,0,0,0,.52-3c0-.6.08-1.14.08-1.64q0-9.85-9.33-14.85t-27.69-5a148.16,148.16,0,0,0-32.1,3.44,140.58,140.58,0,0,0-30,10.3l8.06-40.75a286.06,286.06,0,0,1,34.26-6.35,297.27,297.27,0,0,1,36.35-2.16q37.17,0,55.23,12.76t18.06,38.89a100.74,100.74,0,0,1-.67,11.12Q642.4,195.89,641.05,202.9Zm-83.44,20.15q-20,0-30.23,6.2t-10.22,18.28q0,9.1,6,14.33t16.65,5.23q16.41,0,27.46-9.93t14.78-28l1.2-6.12Z"/><path class="cls-4" d="M850.41,202.9l-18.66,95.38H778.31l4.48-24.78q-13.14,14.94-27.77,22a71.87,71.87,0,0,1-31.79,7.09q-23.75,0-37.69-12.31t-14-33.22q0-31.93,24.7-48.88t71.28-16.95h31.5l.6-4.17a29.62,29.62,0,0,0,.52-3c.05-.6.07-1.14.07-1.64q0-9.85-9.33-14.85t-27.69-5A148.14,148.14,0,0,0,731.14,166a140.85,140.85,0,0,0-30,10.3l8.07-40.75a285.53,285.53,0,0,1,34.25-6.35,297.39,297.39,0,0,1,36.35-2.16q37.17,0,55.23,12.76t18.06,38.89a100.74,100.74,0,0,1-.67,11.12C852,193.87,851.3,198.22,850.41,202.9ZM767,223.05q-20,0-30.22,6.2t-10.23,18.28q0,9.1,6,14.33t16.64,5.23q16.42,0,27.47-9.93t14.78-28l1.19-6.12Z"/><path class="cls-4" d="M917.65,131.1h53.74L938.7,298.28H885.11ZM930.19,66h53.74l-8.51,43.59H921.53Z"/></svg>