<svg id="Ebene_1" data-name="Ebene 1" xmlns="http://www.w3.org/2000/svg" viewBox="0 0 3445 1213"><defs><style>.cls-1,.cls-3,.cls-5{fill:#0071bc;}.cls-1,.cls-2,.cls-3{fill-rule:evenodd;}.cls-2,.cls-4{fill:#fff;}.cls-3{stroke:#fff;stroke-miterlimit:10;stroke-width:2px;}.cls-6{fill:none;stroke:#0071bc;stroke-linecap:round;stroke-linejoin:round;}</style></defs><title>aai_logo</title><path class="cls-1" d="M202.52,257.46l43.36-34.11L283,250.81l14.63-27.27L259.05,191l-24,4.65,20.62-29.92L212.49,188.3l-24.6,29.93,2,34.58,12.64,4.65m220.13,59.85,26.6-49.87,10.64-35.25-46.56,4.66,12,51.2ZM261,337.93l27.27-8-16-34.58,13.3-8-30.6-37.24H242.42l-33.92,24.6,7.32,9.31,31.25-12,8.65-14,10.64,19.95-25.94,17.29,2,8.64,15.29-2L265,319.31Zm2,132.35-8.65-51.21,29.92-63.85-48.54,33.92L226.46,429Zm104.21,42.36V457.77l-15,16.63-11.63-43.23,73.15,21.62,5-53.21L402.16,348l-31.59,48.22,1.67-26.61-10-26.6-29.93-5-15,20,15,3.32,8.32-13.3L349,363v13.3l13.3,34.92L339,417.87l-13.3-11.64-43.23,15C310.16,451.12,365.58,511,367.25,512.64ZM595.56,592l45.22-10.64,31.92-24L644.11,568Zm-40.44,8.78-56.53-31.59-19.95-19.95-3.32,29.92L457,585.79l46.55,1.67Zm21.15.53L640.11,600l39.24-24.61-38.57,14Zm-159.4,546-9.72-22.76,20-38.24,11.64-44.89-11.64-28.27-43.23-56.53L320.69,905l-39.9-39.9L249.2,823.55l-13.3-8.32L206,757l-11.63-49.88,28.56,35.59,36.28-20.62-3.13-23.59,21.42,31.9,6.65,26.6,23.27,8.31-26.6-86.45,49.88,48.21L322.36,767l49.88,31.59-31.59-78.15,26.6-15L314,672.25,355.61,639l-63.18,5,38.24-46.55,79.8-48.21L453.7,442.81,457,524.28,417.12,567.5l43.23-18.28,23.28-139.66-15-3.33,11.64-64.84L482,276.55,528.52,240l-54.87,1.66-28.26,53.21-6.65,49.87-3.33,76.49L417.12,506l-81.46,46.55-51.54-89.78,31.59,83.13-46.56-63.18L314,572.49l-44.89-36.58-26.6-59.85-21.61-29.93-3.33-43.22,28.27-53.21-28.27-41.56-16.63-10-5-18.29-19.95-6.65V241.63l10-36.57,13.31-20,15-13.3,16.62-10,26.6-8.32,33.26,5,36.58,26.6L363.92,210l38.24,10,44.89,5L487,220l49.87-6.65L583.39,250l58.19,66.5,56.53,71.49,15,74.82L743,547.55l13.3,166.26-39.63,45.27-59.56-4.33-91.61,14-63.58-3.4-10,34.92,131.35,133,29.93,59.85-44.9,56.53-68.16,44.89-81.47,34.92,29.93-33.26,41.56-11.63,43.23-93.11-36.58-18.29L520.21,925l-59.86-38.24,44.89,56.53,15,61.52-26.6-56.53L455.36,896.7l-88.11-71.49,83.13,78.14L487,963.21l21.61,46.55L496.93,1058,462,1087.9v-51.54L487,1003.11H463.68l-31.59-59.86L347.3,886.72,398.84,905l-15-26.6-61.51-31.59,43.22,8.32-61.51-59.86-29.93,16.63-28.26-8.31,58.19,66.5L324,891.71,375.56,930l29.93,28.27,26.6,46.55,15,28.27-10,48.21-5,21.61v21.62l18.29-16.63,1.66,26.6Z"/><polyline class="cls-1" points="353.44 681.35 155.35 696.17 18.21 507.57 213.76 440.79 342.69 641.03 485.05 621.71 492.81 644.66 353.44 681.35"/><polyline class="cls-2" points="332.15 646.67 206.78 452.22 49.44 503.15 204.84 464.3 332.15 646.67"/><polyline class="cls-2" points="348.65 675.78 347.98 664.4 478.06 633.13 339.25 658.22 152.45 676.79 159.01 689.22 199.76 685.77 197 677.82 302.22 665.86 306.4 675.36 348.65 675.78"/><polyline class="cls-2" points="246.04 714.43 229.46 757.94 223.94 795.24 220.83 737.91 246.04 714.43"/><polyline class="cls-2" points="346.5 633.21 470.86 620.58 343.17 639.87 320.56 605.28 346.5 633.21"/><polyline class="cls-2" points="339.18 683.09 353.81 687.08 430.96 662.48 353.81 682.43 339.18 683.09"/><polyline class="cls-2" points="489.48 632.55 499.46 646.52 479.51 650.5 493.48 644.52 489.48 632.55"/><path class="cls-1" d="M819.18,925.05l-1.32-14.82-93.15.66v8.56H758l8.56,4.61,8.22-.33,11.85-5.27,25.68-1,6.91,7.58m-67.61,64.29,46.87-8.66,8.56,4-2.3-8.89-114.89,5.6Zm-1.32,32.58,46.88-8.66,8.56,4-2.31-8.89-114.88,5.6Zm-1.31,32.92,46.87-8.66,8.56,4-2.3-8.89-114.89,5.6Zm-1.32,32.59,46.87-8.66,8.56,4-2.3-8.89-114.89,5.6Zm78,35.49,2.59-355.7L659.8,759.44l-4.25,246.07-2.46-245.4L537.27,772.4l125.88-21.67L833.4,762,830,918.33ZM653.82,1154l-110.51-86.33,10.05-6.45,34.71-74.55L542.49,968.5l-4.36-186.6,41.44,120,72.53,137.28,7.77,100.14,4-373.17L823,771.05l.69,32.77L682.3,810.56l141.55,4.11-4.5,40.68-131.28,4.58,130.85,5.76.82,21.4-87.33,7.41,12.34-21.4-67.38-.62-6.58-99.78L669.1,886.8,725,881.56l-1.35,21.17L823,901.08l-3.45,231.34Z"/><path class="cls-1" d="M146.48,139,173.9,217c3.15,8.95,35.72,5.65,72.75-7.36s64.51-30.81,61.37-39.75L280.6,91.86Z"/><polygon class="cls-3" points="316.98 62.8 225.44 160.59 100.17 142.58 191.7 44.78 316.98 62.8"/><path class="cls-4" d="M238.2,67.11c-3.11-.13-6.2-.32-9.29-.58l-2.31-.18a19.19,19.19,0,0,1-2.26-.44L219.81,65l-18.1-3.55L203.1,61,183.61,81.75l-9.74,10.36c-.41.42-.8.87-1.19,1.32a15.07,15.07,0,0,1-1.34,1.18l-2.73,2.31c-1.84,1.53-3.69,3-5.57,4.52,1.36-2,2.75-3.91,4.17-5.84l2.13-2.87a15.06,15.06,0,0,1,1.1-1.4c.42-.42.84-.84,1.24-1.28l9.75-10.36L200.91,59l.57-.6.81.16,18.1,3.55,4.53.89a17.71,17.71,0,0,1,2.26.45l2.21.7C232.34,65.06,235.28,66.05,238.2,67.11Z"/><path class="cls-5" d="M320.6,129.26c-13-51-27.38-77.8-43.94-81.89-8.91-2.21-18.69,2.5-29.07,14L246.11,60c10.9-12.08,21.35-17,31-14.59,17.34,4.28,32.19,31.54,45.4,83.33Z"/><polyline class="cls-6" points="306.85 111.7 312.09 108.68 303.15 115.55 317.56 107.23 301.07 118.83 321.39 107.1 300.25 120.78 323.6 107.3 299.5 123.03 325.88 107.81 298.98 125.37 328.08 108.57 298.87 126.83 329.52 109.13 298.78 128.23 330.7 109.81 298.89 130.35 332.55 110.92 299.13 132.47 334.19 112.23 299.57 134.12 335.45 113.4 300.03 135.76 336.59 114.65 300.44 136.69 337.27 115.42 300.89 137.69 337.87 116.34 301.77 139.4 338.93 117.95 302.41 140.38 339.44 119 303.22 141.62 340.04 120.36 304.27 142.78 340.6 121.8 305.4 144.03 341.04 123.45 306.4 144.85 341.36 124.67 307.7 145.91 341.54 126.37 308.69 146.56 341.65 127.53 310.32 147.5 341.63 129.43 312.1 148.31 341.51 131.33 313.54 148.87 341.19 132.91 315.33 149.34 340.81 134.64 317.12 149.74 340.11 136.47 319.1 149.88 339.36 138.18 323.15 149.72 337.13 141.66 326.94 148.86 334.4 144.56"/><path class="cls-5" d="M1062.13,401.79h16.43L1150.16,589h-14.29l-22.33-58.81h-87.4L1003.94,589H990.65Zm8,12.67L1030,519.8h79.63Z"/><path class="cls-5" d="M1201.89,480.67q7.89-18.3,17.18-25.08,14.16-10.41,26.71-10.41,24.95,0,41.51,20.32t16.55,53.42q0,33.11-16.55,53.42t-41.51,20.32q-12.54,0-26.71-10.41-9.28-6.78-17.18-25.08V589H1190.6V393.89h11.29Zm89.78,38.25q0-34.23-14.54-48.91t-30.47-14.67q-15.69,0-30.23,14.67T1202,518.92q0,34.23,14.42,48.91t30.23,14.67q16,0,30.47-14.67T1291.67,518.92Z"/><path class="cls-5" d="M1435.45,452.71v12.66q-12.17-6.76-15.18-7.52a107.43,107.43,0,0,0-21.82-2.51q-19.82,0-31.1,7.9-8.65,6.52-8.65,22.32,0,10.67,8.15,16.68,8.65,6.52,24.71,10l7.9,1.76q19.93,4.4,30.22,12.42,11.91,9.15,12.54,23.82,0,19.93-11.79,31.23-12.54,11.16-40.38,11.16-15.55,0-23.58-2.13-9.65-2.76-20.31-6.65V569.46q15.3,8.77,19.81,10a96.2,96.2,0,0,0,24.58,3.26q20.33,0,30-8.4T1430.3,552q0-11.53-6.52-16.81-9.4-7.51-30-12.29l-8-1.88q-17.68-4.14-27-11.66-11.67-9.4-11.67-22.82,0-22.08,14-31.73t34.48-9.66q17.43,0,24.08,1.88A117.31,117.31,0,0,1,1435.45,452.71Z"/><path class="cls-5" d="M1588.5,455.34v12.29q-10.41-6.39-17.18-8.65a74.82,74.82,0,0,0-22.32-3.64q-30.36,0-43.52,15.55t-13.17,48q0,32.73,13.17,48.28T1549,582.75a72.64,72.64,0,0,0,19.81-2.76,87.16,87.16,0,0,0,19.69-8v11.66a95.52,95.52,0,0,1-19.94,6.77,97.2,97.2,0,0,1-20.57,2.26q-30.84,0-49-16.68t-18.18-57.06q0-40.26,18.18-57.06t49-16.68a86.36,86.36,0,0,1,21.32,2.89A74.3,74.3,0,0,1,1588.5,455.34Z"/><path class="cls-5" d="M1742.17,504.25V589h-11.53V505q0-27.09-9.16-38.37t-27.71-11.29q-21.32,0-33.73,12.54t-12.42,41.76V589h-11.54V393.89h11.54v80.64q4-10.78,14.3-19.19,12.28-10.15,34.61-10.16,20.82,0,33.23,14.93T1742.17,504.25Z"/><path class="cls-5" d="M1801.43,393.89H1813V589h-11.53Z"/><path class="cls-5" d="M1873.84,533.34V448.57h11.54v84q0,27.35,8.78,38.5T1920,582.25q19.93,0,34.11-12T1968.4,528V448.57h11.53V589H1968.4V562.69q-6.15,12.78-16.18,19.56a56.61,56.61,0,0,1-32.73,10.16q-20.82,0-33.23-14.17T1873.84,533.34Z"/><path class="cls-5" d="M2120.19,452.71v12.66q-12.17-6.76-15.17-7.52a107.52,107.52,0,0,0-21.82-2.51q-19.82,0-31.1,7.9-8.65,6.52-8.65,22.32,0,10.67,8.15,16.68,8.66,6.52,24.7,10l7.9,1.76q20,4.4,30.22,12.42,11.92,9.15,12.54,23.82,0,19.93-11.78,31.23-12.54,11.16-40.38,11.16-15.56,0-23.58-2.13-9.66-2.76-20.31-6.65V569.46q15.3,8.77,19.81,10a96.2,96.2,0,0,0,24.58,3.26q20.31,0,30-8.4t9.78-22.32q0-11.53-6.52-16.81-9.41-7.51-30-12.29l-8-1.88q-17.67-4.14-27-11.66-11.65-9.4-11.66-22.82,0-22.08,14-31.73t34.48-9.66q17.43,0,24.08,1.88A117.17,117.17,0,0,1,2120.19,452.71Z"/><path class="cls-5" d="M2256.57,452.71v12.66q-12.17-6.76-15.18-7.52a107.43,107.43,0,0,0-21.82-2.51q-19.82,0-31.1,7.9-8.66,6.52-8.65,22.32,0,10.67,8.15,16.68,8.66,6.52,24.7,10l7.9,1.76q19.95,4.4,30.23,12.42,11.91,9.15,12.54,23.82,0,19.93-11.79,31.23-12.54,11.16-40.38,11.16-15.55,0-23.58-2.13-9.65-2.76-20.31-6.65V569.46q15.3,8.77,19.81,10a96.2,96.2,0,0,0,24.58,3.26q20.31,0,30-8.4t9.78-22.32q0-11.53-6.52-16.81-9.41-7.51-30-12.29l-8-1.88q-17.68-4.14-27-11.66-11.66-9.4-11.66-22.82,0-22.08,14-31.73t34.48-9.66q17.43,0,24.08,1.88A117.81,117.81,0,0,1,2256.57,452.71Z"/><path class="cls-5" d="M2412.63,508.89V589h-11.42V550.9q-9.64,28-25.58,35.61a57.27,57.27,0,0,1-25.2,6.15q-21,0-33-11.16t-12-33.11q0-21.82,15.67-34.86t51.29-13.17H2401V498.1q0-18.68-10.66-30.72t-34.86-12a72.32,72.32,0,0,0-24.58,4.52q-8,2.88-20.81,11.66V459.1a88.9,88.9,0,0,1,20.81-9.78,95.31,95.31,0,0,1,27-4.14q24.84,0,40.89,15.05Q2412.63,473.15,2412.63,508.89Zm-43,.88q-27.84,0-40.13,9.9t-12.29,29q0,18.55,10.16,26.34t24.08,7.77q26.34,0,37.87-22.32t11.66-42v-8.65Z"/><path class="cls-5" d="M2549.63,458.48a32,32,0,0,0-7.53-2.39,64,64,0,0,0-10.78-.75q-21.33,0-35.37,15.8-11,12.8-11,43.89v74h-11.29V448.57h11.29V474.9a54.42,54.42,0,0,1,15.8-19.06q14-10.65,33.1-10.66a84.24,84.24,0,0,1,8.53.38,29.74,29.74,0,0,1,7.28.88Z"/><path class="cls-5" d="M2593.07,480.67q7.91-18.3,17.18-25.08,14.17-10.41,26.72-10.41,24.95,0,41.5,20.32T2695,518.92q0,33.11-16.56,53.42T2637,592.66q-12.55,0-26.72-10.41-9.27-6.78-17.18-25.08V589h-11.28V393.89h11.28Zm89.79,38.25q0-34.23-14.54-48.91t-30.48-14.67q-15.68,0-30.22,14.67t-14.42,48.91q0,34.23,14.42,48.91t30.22,14.67q16,0,30.48-14.67T2682.86,518.92Z"/><path class="cls-5" d="M2856.6,513v7.27H2750q0,33.86,13.17,47.4,14.55,15,43.26,15,7.53,0,19.94-3.26a113.91,113.91,0,0,0,24.83-9.78v12.16a138.42,138.42,0,0,1-25.45,8q-13.05,2.76-20.7,2.76-32.47,0-48.9-17.56-17.8-18.69-17.81-54.8,0-37.5,16.3-55.93,16.68-19.19,46.4-19.19,27.59,0,41.63,18.19Q2856.6,482.43,2856.6,513Zm-11.66-2.51q0-29.59-13.29-43.14-11.16-12-30.35-12-20.94,0-35.11,12.54-13.05,11.67-15.68,42.64Z"/><path class="cls-5" d="M2907.45,393.89H2919V409.7h-11.54Zm0,54.68H2919V589h-11.54Z"/><path class="cls-5" d="M2993.79,408.69v39.88h47.53v9.78h-47.53v84.4q0,16.05,4.14,22.44,8.52,14.05,24.83,14h18.56V589h-17.93q-17.19,0-29.22-10t-12-36.24v-84.4h-16.81v-9.78h16.81V408.69Z"/><path class="cls-5" d="M3194.37,513v7.27H3087.78q0,33.86,13.16,47.4,14.55,15,43.27,15,7.51,0,19.94-3.26a114.3,114.3,0,0,0,24.83-9.78v12.16a138.76,138.76,0,0,1-25.46,8q-13,2.76-20.69,2.76-32.49,0-48.91-17.56-17.8-18.69-17.81-54.8,0-37.5,16.31-55.93,16.66-19.19,46.4-19.19,27.58,0,41.63,18.19Q3194.37,482.43,3194.37,513Zm-11.66-2.51q0-29.59-13.3-43.14-11.16-12-30.34-12-21,0-35.12,12.54-13,11.67-15.67,42.64Z"/><path class="cls-5" d="M3351.56,504.25V589H3340V505q0-27.33-8.78-38.5t-25.83-11.16q-19.93,0-34.11,12T3257,509.64V589h-11.53V448.57H3257V474.9q6.15-12.78,16.18-19.56a56.58,56.58,0,0,1,32.73-10.16q20.82,0,33.23,14.17T3351.56,504.25Z"/><path class="cls-5" d="M1014.1,682.07h13V869.3h-13Z"/><path class="cls-5" d="M1196.5,784.53V869.3H1185v-84q0-27.35-8.78-38.5t-25.83-11.16q-19.95,0-34.11,12t-14.3,42.26V869.3h-11.53V728.85h11.53v26.33q6.15-12.79,16.18-19.56a56.56,56.56,0,0,1,32.73-10.16q20.82,0,33.23,14.17T1196.5,784.53Z"/><path class="cls-5" d="M1267.91,689v39.88h47.53v9.78h-47.53V823q0,16.07,4.14,22.45,8.52,14,24.83,14h18.56v9.78H1297.5q-17.18,0-29.21-10t-12-36.25V738.63h-16.81v-9.78h16.81V689Z"/><path class="cls-5" d="M1468.49,793.3v7.28H1361.9q0,33.85,13.16,47.4,14.55,15,43.27,15,7.51,0,19.94-3.26a115,115,0,0,0,24.82-9.78v12.16a138.42,138.42,0,0,1-25.45,8q-13,2.75-20.69,2.75-32.49,0-48.91-17.55-17.8-18.69-17.81-54.8,0-37.5,16.31-55.93,16.67-19.18,46.39-19.19,27.6,0,41.64,18.18Q1468.49,762.71,1468.49,793.3Zm-11.66-2.5q0-29.59-13.3-43.14-11.16-12-30.34-12-21,0-35.12,12.54-13,11.65-15.67,42.64Z"/><path class="cls-5" d="M1595.83,738.75a32.13,32.13,0,0,0-7.52-2.38,64.14,64.14,0,0,0-10.79-.75q-21.32,0-35.36,15.8-11,12.8-11,43.89v74h-11.28V728.85h11.28v26.33a54.52,54.52,0,0,1,15.8-19.06Q1561,725.47,1580,725.46a84.38,84.38,0,0,1,8.53.38,29.6,29.6,0,0,1,7.27.88Z"/><path class="cls-5" d="M1688.19,674.17V684h-16.31q-12.78,0-19.56,6.65-8.28,8.16-8.28,25.83v12.42h37.88v9.78H1644V869.3h-11.66V738.63h-22.07v-9.78h22.07v-9.78q0-23.46,10.66-34.11t29.09-10.79Z"/><path class="cls-5" d="M1819.92,789.17V869.3h-11.41V831.18q-9.66,28-25.58,35.61a57.47,57.47,0,0,1-25.21,6.14q-20.94,0-33-11.16t-12-33.1q0-21.82,15.68-34.86t51.29-13.17h28.59v-2.26q0-18.69-10.66-30.72t-34.86-12a72.25,72.25,0,0,0-24.58,4.51q-8,2.89-20.82,11.67V739.38a88.15,88.15,0,0,1,20.82-9.78,95.26,95.26,0,0,1,27-4.14q24.83,0,40.88,15Q1819.92,753.43,1819.92,789.17Zm-43,.87q-27.84,0-40.13,9.91t-12.29,29q0,18.55,10.16,26.33t24.07,7.78q26.34,0,37.87-22.32t11.67-42V790Z"/><path class="cls-5" d="M1976.86,735.62v12.29q-10.41-6.4-17.18-8.65a74.82,74.82,0,0,0-22.32-3.64q-30.36,0-43.52,15.55t-13.17,48q0,32.73,13.17,48.28T1937.36,863a72.64,72.64,0,0,0,19.81-2.76,87.21,87.21,0,0,0,19.69-8v11.67a95.52,95.52,0,0,1-19.94,6.77,97.11,97.11,0,0,1-20.57,2.25q-30.84,0-49-16.67t-18.18-57.06q0-40.26,18.18-57.06t49-16.68a85.89,85.89,0,0,1,21.32,2.89A74.16,74.16,0,0,1,1976.86,735.62Z"/><path class="cls-5" d="M2133.92,793.3v7.28H2027.33q0,33.85,13.17,47.4,14.53,15,43.26,15,7.53,0,19.94-3.26a114.92,114.92,0,0,0,24.83-9.78v12.16a138.52,138.52,0,0,1-25.46,8q-13,2.75-20.69,2.75-32.48,0-48.91-17.55-17.81-18.69-17.8-54.8,0-37.5,16.3-55.93,16.68-19.18,46.4-19.19,27.59,0,41.63,18.18Q2133.92,762.71,2133.92,793.3Zm-11.66-2.5q0-29.59-13.29-43.14-11.16-12-30.35-12-20.94,0-35.11,12.54-13,11.65-15.68,42.64Z"/></svg>