<svg id="Ebene_1" data-name="Ebene 1" xmlns="http://www.w3.org/2000/svg" viewBox="0 0 1041 384"><defs><style>.cls-1{fill:#007bff;}.cls-2{fill:#fff;}</style></defs><title>aai_logo</title><path class="cls-1" d="M96,170.4,94.2,300.3c-.2,14.9,49.6,27.6,111.2,28.5s111.8-10.5,112-25.4l1.8-129.9Z"/><polygon class="cls-1" points="388.5 150.3 200.7 245 25.7 150.7 213.6 56 388.5 150.3"/><path class="cls-2" d="M200.66,247.82,20.29,150.63,213.64,53.18l180.27,97.19Zm-169.55-97,169.63,91.41,182.35-92L213.56,58.82Z"/><path class="cls-2" d="M275.3,121.53c-5.37-2.56-10.62-5.25-15.87-7.94l-3.91-2a41.22,41.22,0,0,1-3.79-2.32l-7.57-4.64L213.88,86.37l1.83.12L167,110.91l-24.42,12.21c-1,.49-2.08,1-3.06,1.59s-2.07.85-3.17,1.34L130,128.61c-4.27,1.71-8.43,3.42-12.7,5,3.91-2.44,7.81-4.76,11.72-7.2l5.86-3.55c1-.61,2-1.22,2.93-1.71s2.08-1,3.06-1.46l24.42-12.21L214,83.07l.86-.49.85.49L246,101.38l7.57,4.64c1.22.74,2.56,1.47,3.78,2.32l3.66,2.57C265.78,114.45,270.66,117.87,275.3,121.53Z"/><path class="cls-2" d="M104,140.15l12.48-7.8c2-1.23,3.92-2.42,5.88-3.61s3.9-2.38,5.85-3.6l5.88-3.55c1-.6,2-1.24,3-1.77.5-.25,1-.5,1.57-.75s1-.47,1.49-.71l24.42-12.21,43.24-21.68h0l5.45-2.73,1.53-.88,1.6.92,30.31,18.33,7.58,4.65,1,.57c.95.56,1.94,1.14,2.88,1.8l3.66,2.56c1.62,1.2,3.22,2.37,4.82,3.53,3.16,2.3,6.42,4.68,9.54,7.14l10.51,8.31-12.09-5.78c-5.37-2.56-10.71-5.29-15.86-7.93l-3.94-2a19,19,0,0,1-2.65-1.57c-.42-.28-.83-.56-1.24-.8L243.38,106,214.76,88.65l-47.09,23.6-25.18,12.58a23.45,23.45,0,0,0-2.17,1.15l-.13.07c-.62.31-1.28.57-1.92.83-.43.17-.87.34-1.31.54l-9.24,3.72c-3.22,1.3-6.56,2.64-9.9,3.89ZM210.89,86.31,166,108.83,141.54,121l-1.56.75-1.5.72c-.92.46-1.87,1.06-2.8,1.64l-2.77,1.67,2.88-1.16c.42-.19.9-.38,1.37-.57s1.13-.45,1.63-.7c.79-.48,1.6-.88,2.39-1.26l.72-.35,24.42-12.21,45.4-22.76Zm7,.75,27,16.34,7.58,4.64c.44.27.89.57,1.35.87a16.31,16.31,0,0,0,2.27,1.37l4,2,.68.35-.66-.49-3.63-2.54c-.84-.59-1.77-1.13-2.67-1.66l-1-.6-7.58-4.65-26.47-16Zm-4.14-2.2L216,85l-1.16-.69-.11.06Z"/><path class="cls-1" d="M361,250.6l-3-.3c8.4-82.3,1.7-129.5-20.5-144.6-12-8.1-29-6.4-50.5,4.9l-1.4-2.7c22.6-11.9,40.6-13.5,53.6-4.7C362.4,118.9,369.5,167.1,361,250.6Z"/><path class="cls-1" d="M356,283a.52.52,0,0,1-.4-.2.53.53,0,0,1,.2-.7l11.2-7-13.3,7.7a.51.51,0,1,1-.5-.9l10.3-6.4-11.9,6.8a.51.51,0,1,1-.5-.9l7.5-4.6-8.8,5.1a.51.51,0,1,1-.5-.9l14.8-9.2-16.4,9.5a.51.51,0,1,1-.5-.9l15.7-9.7-17.1,9.9a.51.51,0,0,1-.5-.9l15.5-9.6L344,279.8a.51.51,0,1,1-.5-.9L365,265.5,342,279a.51.51,0,1,1-.5-.9L361.2,266l-20.9,12a.51.51,0,1,1-.5-.9l20.3-12.5L338.8,277a.51.51,0,1,1-.5-.9l10.3-6.2-10.9,6.3a.51.51,0,1,1-.5-.9l1-.6-1.4.8a.51.51,0,1,1-.5-.9L360,260l-24.6,14.2a.51.51,0,1,1-.5-.9l19.8-12.1-20.5,11.9a.51.51,0,0,1-.5-.9l7.3-4.4-7.6,4.4a.51.51,0,1,1-.5-.9L359.4,255l-27.2,15.7a.51.51,0,1,1-.5-.9l5.9-3.5-6.1,3.5a.51.51,0,1,1-.5-.9l10.9-6.6-11.1,6.4a.51.51,0,1,1-.5-.9l13.4-8.1-13.6,7.9a.53.53,0,0,1-.7-.2c-.2-.3-.1-.5.2-.7l9.9-6-10.1,5.8a.51.51,0,1,1-.5-.9l21.3-13-21.6,12.5a.51.51,0,0,1-.5-.9l22.2-13.6-22.4,13a.53.53,0,0,1-.7-.2c-.2-.3-.1-.5.2-.7l3.4-2-3.3,1.9a.51.51,0,0,1-.5-.9l20.6-12.6-20.7,12a.51.51,0,0,1-.5-.9l10.1-6.1-10,5.7a.51.51,0,1,1-.5-.9l22.2-13.5L326,258.2a.51.51,0,1,1-.5-.9l19.1-11.6-19,11a.51.51,0,1,1-.5-.9L342.8,245,325,255.9a.51.51,0,0,1-.5-.9l7.9-4.7-7.6,4.4a.51.51,0,1,1-.5-.9l25.3-15.7-25.1,14.5a.51.51,0,1,1-.5-.9l4.6-2.8-4.2,2.4a.51.51,0,0,1-.5-.9l.4-.2a.48.48,0,0,1-.6-.2.53.53,0,0,1,.2-.7l19.7-12.1-19.2,11.1a.51.51,0,0,1-.5-.9l18.8-11.6-18.1,10.4a.51.51,0,1,1-.5-.9l22.2-13.9-21.5,12.4a.51.51,0,0,1-.5-.9l20.1-12.7-19.1,11a.51.51,0,1,1-.5-.9l6.1-3.7-5.2,3a.51.51,0,1,1-.5-.9l6.6-4-5.4,3.1a.51.51,0,0,1-.5-.9l15.2-9.7-13.7,7.9a.51.51,0,1,1-.5-.9l11.4-7.3-9.6,5.5a.51.51,0,0,1-.5-.9l5.9-3.7-3.9,2.3a.53.53,0,0,1-.7-.2.62.62,0,0,1,.1-.7l9.4-6.4-5.9,3.4a.53.53,0,0,1-.7-.2.62.62,0,0,1,.1-.7l4.9-3.6c-.1,0-.2-.1-.3-.2a.53.53,0,0,1,.2-.7l6.8-3.9a.53.53,0,0,1,.7.2.62.62,0,0,1-.1.7l-3.8,2.7,9.8-5.6a.53.53,0,0,1,.7.2.62.62,0,0,1-.1.7l-9.4,6.4,13.6-7.9a.51.51,0,0,1,.5.9l-5.9,3.7,8.1-4.7a.51.51,0,1,1,.5.9l-11.4,7.3,13.7-7.9a.51.51,0,0,1,.5.9l-15.2,9.7L363.9,215a.51.51,0,0,1,.5.9l-6.6,4,7.8-4.5a.51.51,0,0,1,.5.9l-6,3.7,7.2-4.2a.51.51,0,0,1,.5.9l-20.1,12.7,21.9-12.7a.51.51,0,1,1,.5.9l-22.2,13.9,24-13.9a.51.51,0,0,1,.5.9l-18.8,11.6,20-11.5a.53.53,0,0,1,.7.2c.2.3.1.5-.2.7l-19.7,12.1,20.9-12a.51.51,0,1,1,.5.9l-.3.2.7-.4a.51.51,0,0,1,.5.9L372,224l5.1-2.9a.51.51,0,1,1,.5.9l-25.3,15.7,26.5-15.3a.51.51,0,0,1,.5.9l-7.9,4.7,8.3-4.8a.51.51,0,1,1,.5.9l-17.7,10.8,18.3-10.6a.51.51,0,0,1,.5.9l-19.1,11.6,19.7-11.4a.51.51,0,0,1,.5.9l-22.2,13.5,22.7-13.1a.51.51,0,0,1,.5.9l-10.1,6.1,10.4-6a.51.51,0,1,1,.5.9l-20.6,12.6L384.7,229a.51.51,0,0,1,.5.9l-3.4,2,3.4-2a.51.51,0,0,1,.5.9l-22,13.2,22.6-13.1a.51.51,0,0,1,.5.9l-21.3,13,21.6-12.5a.51.51,0,0,1,.5.9l-9.9,6,9.9-5.7a.51.51,0,0,1,.5.9l-13.4,8.1,13.5-7.8a.51.51,0,1,1,.5.9l-10.9,6.6,10.9-6.3a.51.51,0,0,1,.5.9l-5.9,3.5L389,237a.51.51,0,0,1,.5.9L363.1,254l26.6-15.3a.51.51,0,1,1,.5.9L383,244l7.1-4.1a.51.51,0,0,1,.5.9l-19.9,12.1,19.7-11.4a.51.51,0,1,1,.5.9L367.2,257l23.6-13.6a.51.51,0,0,1,.5.9l-1,.6.7-.4a.51.51,0,0,1,.5.9l-10.3,6.2,9.9-5.7a.51.51,0,0,1,.5.9L371.3,259l19.9-11.5a.51.51,0,0,1,.5.9L372,260.5l19.2-11.1a.51.51,0,0,1,.5.9l-21.5,13.4,20.8-12a.51.51,0,1,1,.5.9L376,262l14.9-8.6a.51.51,0,1,1,.5.9L375.7,264l14.8-8.5a.51.51,0,0,1,.5.9l-14.8,9.2,13.9-8a.51.51,0,0,1,.5.9L383,263l6.4-3.7a.51.51,0,0,1,.5.9l-10.3,6.4,9-5.2a.51.51,0,1,1,.5.9l-11.2,7,9.5-5.5a.51.51,0,0,1,.5.9l-12.5,8.1,10.2-5.9a.53.53,0,0,1,.7.2.62.62,0,0,1-.1.7l-10.6,7.3,6.9-4a.53.53,0,0,1,.7.2.62.62,0,0,1-.1.7l-5,3.6c.1,0,.2.1.3.2a.53.53,0,0,1-.2.7l-6.8,3.9a.53.53,0,0,1-.7-.2.62.62,0,0,1,.1-.7l3.9-2.8-10,5.7a.53.53,0,0,1-.7-.2.62.62,0,0,1,.1-.7l10.6-7.3L359.5,283a.51.51,0,1,1-.5-.9l12.5-8.1-15.6,9Z"/><path class="cls-1" d="M641.1,202.9l-18.7,95.4H569l4.5-24.8c-8.8,10-18,17.3-27.8,22a72.61,72.61,0,0,1-31.8,7.1c-15.8,0-28.4-4.1-37.7-12.3s-14-19.3-14-33.2q0-32,24.7-48.9c16.5-11.3,40.2-16.9,71.3-16.9h31.5l.6-4.2a18,18,0,0,0,.5-3c0-.6.1-1.1.1-1.6,0-6.6-3.1-11.5-9.3-14.9s-15.4-5-27.7-5a148.2,148.2,0,0,0-32.1,3.4,138.17,138.17,0,0,0-30,10.3l8.1-40.8a273.19,273.19,0,0,1,34.3-6.3,305.11,305.11,0,0,1,36.3-2.2q37.2,0,55.2,12.8c12,8.5,18.1,21.5,18.1,38.9a89.32,89.32,0,0,1-.7,11.1C642.6,193.8,642,198.2,641.1,202.9Zm-83.5,20.2c-13.3,0-23.4,2.1-30.2,6.2s-10.2,10.2-10.2,18.3c0,6.1,2,10.8,6,14.3s9.6,5.2,16.6,5.2c10.9,0,20.1-3.3,27.5-9.9s12.3-15.9,14.8-28l1.2-6.1Z"/><path class="cls-1" d="M850.4,202.9l-18.7,95.4H778.3l4.5-24.8c-8.8,10-18,17.3-27.8,22a72.61,72.61,0,0,1-31.8,7.1c-15.8,0-28.4-4.1-37.7-12.3s-14-19.3-14-33.2q0-32,24.7-48.9c16.5-11.3,40.2-16.9,71.3-16.9H799l.6-4.2a18,18,0,0,0,.5-3c0-.6.1-1.1.1-1.6,0-6.6-3.1-11.5-9.3-14.9s-15.5-5-27.7-5a148.2,148.2,0,0,0-32.1,3.4,138.17,138.17,0,0,0-30,10.3l8.1-40.8a273.19,273.19,0,0,1,34.3-6.3,305.11,305.11,0,0,1,36.3-2.2q37.2,0,55.2,12.8c12,8.5,18.1,21.5,18.1,38.9a89.32,89.32,0,0,1-.7,11.1C852,193.9,851.3,198.2,850.4,202.9ZM767,223.1c-13.3,0-23.4,2.1-30.2,6.2s-10.2,10.2-10.2,18.3c0,6.1,2,10.8,6,14.3s9.6,5.2,16.6,5.2c10.9,0,20.1-3.3,27.5-9.9s12.3-15.9,14.8-28l1.2-6.1Z"/><path class="cls-1" d="M917.7,131.1h53.7L938.7,298.3H885.1ZM930.2,66h53.7l-8.5,43.6H921.5Z"/></svg>