<?xml version="1.0" encoding="UTF-8" standalone="no"?>
<svg
   xmlns:dc="http://purl.org/dc/elements/1.1/"
   xmlns:cc="http://creativecommons.org/ns#"
   xmlns:rdf="http://www.w3.org/1999/02/22-rdf-syntax-ns#"
   xmlns:svg="http://www.w3.org/2000/svg"
   xmlns="http://www.w3.org/2000/svg"
   xmlns:sodipodi="http://sodipodi.sourceforge.net/DTD/sodipodi-0.dtd"
   xmlns:inkscape="http://www.inkscape.org/namespaces/inkscape"
   id="Ebene_1"
   data-name="Ebene 1"
   viewBox="0 0 2367.54 751.3"
   version="1.1"
   inkscape:version="0.91 r13725"
   sodipodi:docname="aai_logo_big.svg">
  <metadata
     id="metadata49">
    <rdf:RDF>
      <cc:Work
         rdf:about="">
        <dc:format>image/svg+xml</dc:format>
        <dc:type
           rdf:resource="http://purl.org/dc/dcmitype/StillImage" />
      </cc:Work>
    </rdf:RDF>
  </metadata>
  <sodipodi:namedview
     pagecolor="#ffffff"
     bordercolor="#666666"
     borderopacity="1"
     objecttolerance="10"
     gridtolerance="10"
     guidetolerance="10"
     inkscape:pageopacity="0"
     inkscape:pageshadow="2"
     inkscape:window-width="1920"
     inkscape:window-height="1023"
     id="namedview47"
     showgrid="false"
     inkscape:zoom="1.361751"
     inkscape:cx="1934.5768"
     inkscape:cy="460.66498"
     inkscape:window-x="0"
     inkscape:window-y="0"
     inkscape:window-maximized="1"
     inkscape:current-layer="Ebene_1" />
  <defs
     id="defs3">
    <style
       id="style5">.cls-1,.cls-4,.cls-6{fill:#007bff;}.cls-2{fill:#fff;}.cls-3{fill:none;stroke:#0071bc;stroke-linecap:round;stroke-linejoin:round;}.cls-4{font-size:88.34px;letter-spacing:0.01em;}.cls-4,.cls-6{font-family:DejaVuSans-ExtraLight, DejaVu Sans;}.cls-5{letter-spacing:-0.09em;}.cls-6{font-size:132.81px;stroke:#007bff;stroke-miterlimit:10;stroke-width:2px;letter-spacing:-0.01em;}</style>
  </defs>
  <title
     id="title7">aai_logo</title>
  <path
     class="cls-1"
     d="M1982.89,272.35l19.06-15,16.3,12.08,6.41-12-17-14.32-10.49,2.07,9-13.14-19,9.93-10.81,13.13.88,15.2,5.54,2m96.68,26.27,11.68-21.92,4.66-15.46-20.47,2.06,5.27,22.49Zm-71,9.05,12-3.51-7-15.2,5.84-3.52L2006,269.1h-5.54l-14.89,10.81,3.21,4.08,13.75-5.27,3.78-6.15,4.65,8.74-11.38,7.6.88,3.78,6.72-.88,3.21,7.6Zm.88,58.16-3.78-22.49,13.14-28-21.31,14.89-4.08,17.53Zm45.77,18.58V360.29l-6.59,7.3-5.09-19,32.15,9.49,2.2-23.37-7.29-22.62-13.88,21.17.74-11.68-4.39-11.69-13.13-2.2-6.59,8.79L2040,318l3.64-5.84,3.65,6.59v5.84l5.84,15.33-10.23,2.9-5.85-5.1-19,6.59C2030.2,357.4,2054.53,383.71,2055.23,384.41Zm100.33,34.88,19.86-4.66,14-10.5-12.56,4.66Zm-17.79,3.86L2113,409.27l-8.74-8.74-1.45,13.14-8,2.94,20.47.75Zm9.31.22,28-.57,17.22-10.8-17,6.15Zm-70,239.8-4.27-10,8.75-16.78,5.09-19.72-5.09-12.43-19-24.82-27.76-22.62-17.53-17.53L2003.4,521l-5.84-3.65-13.14-25.56-5.09-21.92,12.56,15.64,15.95-9.05-1.37-10.37,9.41,14,2.94,11.69,10.23,3.64-11.68-38,21.92,21.17-3.65,17.53L2057.56,510l-13.88-34.31,11.69-6.59L2032,454.47l18.27-14.62L2022.51,442l16.78-20.47,35.05-21.17,19-46.74,1.45,35.8-17.53,19,19-8L2106.45,339l-6.59-1.45,5.1-28.46.75-28.46,20.47-16.08-24.12.75-12.43,23.36-2.9,21.92-1.45,33.61-8.13,37.29L2041.35,402l-22.62-39.44,13.88,36.5-20.47-27.76,19.72,39.44-19.72-16.07-11.68-26.32L1991,355.2l-1.45-19L2002,312.85l-12.43-18.27-7.29-4.39-2.2-8-8.78-2.9V265.37l4.39-16.08,5.84-8.78,6.59-5.85,7.29-4.39,11.69-3.64,14.62,2.19,16.08,11.69,16.08,10.93,16.78,4.4,19.72,2.19,17.53-2.19,21.92-3L2150.25,269l25.56,29.21,24.82,31.41,6.59,32.86,13.13,37.25,5.85,73.05-17.4,19.9-26.18-1.89-40.24,6.15-27.93-1.5-4.4,15.33,57.68,58.43,13.13,26.31-19.72,24.82-30,19.72-35.8,15.33,13.14-14.63,18.27-5.09,19-40.9-16.08-8-7.29-21.17-26.31-16.78,19.72,24.82,6.59,27-11.69-24.81-16.78-22.63-38.7-31.4,36.51,34.3,16.07,26.31,9.49,20.47L2112.21,624l-15.33,13.13V614.5l10.93-14.63h-10.23l-13.88-26.31-37.25-24.82,22.62,8-6.59-11.69-27-13.88,19,3.65-27-26.31-13.14,7.29-12.43-3.65,25.57,29.21,8.78,9.49,22.63,16.78L2072,580.1l11.68,20.47,6.59,12.44-4.39,21.17-2.2,9.49v9.48l8-7.29.75,11.69Z"
     id="path9" />
  <polyline
     class="cls-1"
     points="2049.17 458.51 1962.2 465.06 1901.93 382.21 1987.85 352.87 2044.47 440.81 2106.98 432.33 2110.41 442.44 2049.17 458.51"
     id="polyline11" />
  <polyline
     class="cls-2"
     points="2039.86 443.32 1984.78 357.88 1915.63 380.28 1983.9 363.19 2039.86 443.32"
     id="polyline13" />
  <polyline
     class="cls-2"
     points="2047.06 456.1 2046.8 451.09 2103.95 437.34 2042.93 448.37 1960.92 456.54 1963.78 461.99 1981.7 460.49 1980.47 456.98 2026.68 451.75 2028.53 455.92 2047.06 456.1"
     id="polyline15" />
  <polyline
     class="cls-2"
     points="2001.99 473.06 1994.75 492.16 1992.29 508.55 1990.92 483.38 2001.99 473.06"
     id="polyline17" />
  <polyline
     class="cls-2"
     points="2046.14 437.39 2100.79 431.85 2044.69 440.33 2034.76 425.13 2046.14 437.39"
     id="polyline19" />
  <polyline
     class="cls-2"
     points="2042.93 459.31 2049.35 461.06 2083.26 450.26 2049.35 459 2042.93 459.31"
     id="polyline21" />
  <polyline
     class="cls-2"
     points="2108.96 437.08 2113.35 443.23 2104.56 444.99 2110.71 442.35 2108.96 437.08"
     id="polyline23" />
  <path
     class="cls-1"
     d="M2253.78,565.56l-.57-6.5-40.94.31v3.78h14.63l3.78,2,3.6-.13,5.23-2.33,11.29-.44,3,3.29m-29.69,28.25,20.6-3.82,3.78,1.75-1-3.9L2197,590.3Zm-.57,14.32,20.6-3.82,3.78,1.71-1-3.91-50.48,2.46Zm-.62,14.45,20.6-3.82,3.78,1.76-1-3.91-50.47,2.46Zm-.57,14.32,20.6-3.82,3.78,1.71-1-3.91-50.47,2.46Zm34.26,15.6,1.15-156.25-74-3.43-1.84,108.11-1.1-107.8-50.87,5.4,55.31-9.53,74.76,5-1.49,68.66Zm-75.46,13.66-48.54-37.91,4.39-2.81,15.24-32.77-20-8-1.93-82,18.19,52.71,31.84,60.31,3.43,44,1.76-163.94,69.93,2.16.31,14.41-62.12,2.94,62.16,1.8-2,17.88-57.67,2,57.5,2.55.35,9.4-38.35,3.25,5.4-9.4-29.6-.27-2.9-43.84-.75,50.12,24.56-2.28-.58,9.31,43.67-.7-1.5,101.6Z"
     id="path25" />
  <path
     class="cls-1"
     d="M1958.29,220.3l12,34.31c1.36,3.91,15.68,2.5,31.94-3.25s28.33-13.53,27-17.49l-12-34.3Z"
     id="path27" />
  <polygon
     class="cls-1"
     points="2033.18 186.83 1992.94 229.79 1937.95 221.88 1978.14 178.92 2033.18 186.83"
     id="polygon29" />
  <path
     class="cls-2"
     d="M1993.3,230.81,1936,222.57l41.79-44.67,57.36,8.24Zm-53.39-9.62,52.68,7.58,38.63-41.25-52.72-7.58Z"
     id="path31" />
  <path
     class="cls-2"
     d="M1998.57,188.72c-1.36-.05-2.73-.13-4.09-.27l-1-.08c-.35-.05-.66-.14-1-.18l-2-.4-8-1.58.62-.17-8.57,9.09-4.26,4.57c-.17.17-.35.39-.52.57s-.4.35-.58.53l-1.18,1c-.79.66-1.63,1.31-2.46,2,.61-.87,1.23-1.71,1.84-2.54l.93-1.28a5.18,5.18,0,0,1,.48-.61,7.41,7.41,0,0,0,.53-.57l4.26-4.57,8.56-9.1.27-.26.35.09,8,1.58,2,.4c.35.08.65.08,1,.17l1,.31Z"
     id="path33" />
  <path
     class="cls-1"
     d="M2034.76,216c-5.71-22.4-12-34.18-19.28-36-3.91-1-8.21,1.1-12.78,6.15l-.66-.57c4.79-5.31,9.35-7.47,13.62-6.41,7.59,1.89,14.14,13.84,19.94,36.59Z"
     id="path35" />
  <polyline
     class="cls-3"
     points="2028.75 208.31 2031.03 206.99 2027.08 210.02 2033.45 206.33 2026.2 211.43 2035.12 206.29 2025.8 212.31 2036.08 206.38 2025.49 213.27 2037.09 206.59 2025.28 214.33 2038.06 206.95 2025.23 214.94 2038.67 207.17 2025.19 215.56 2039.2 207.47 2025.23 216.48 2039.99 207.96 2025.32 217.44 2040.74 208.53 2025.54 218.15 2041.31 209.06 2025.71 218.89 2041.79 209.63 2025.89 219.29 2042.1 209.93 2026.11 219.73 2042.36 210.33 2026.51 220.48 2042.8 211.08 2026.77 220.91 2043.02 211.51 2027.12 221.44 2043.29 212.13 2027.6 221.97 2043.55 212.75 2028.09 222.5 2043.72 213.45 2028.53 222.89 2043.9 214.02 2029.1 223.33 2043.94 214.76 2029.54 223.64 2044.03 215.25 2030.24 224.03 2043.99 216.08 2031.03 224.38 2043.94 216.92 2031.64 224.65 2043.81 217.62 2032.43 224.82 2043.64 218.37 2033.23 225 2043.33 219.2 2034.11 225.09 2043.02 219.95 2035.91 225 2042.01 221.49 2037.53 224.65 2040.83 222.76"
     id="polyline37"
     style="stroke:#007bff;stroke-opacity:1" />
  <text
     class="cls-4"
     transform="translate(586.3 495.29)"
     id="text39">ww<tspan
   class="cls-5"
   x="145.39"
   y="0"
   id="tspan41">w</tspan>
<tspan
   x="209.97"
   y="0"
   id="tspan43">.aai.fsi.uni-tuebingen.de</tspan>
</text>
  <text
     class="cls-6"
     transform="translate(159.54 644.14)"
     id="text45">Abschlussarbeiten-Interface</text>
</svg>
